<mxfile host="app.diagrams.net" modified="2021-02-03T15:39:55.556Z" agent="5.0 (Macintosh; Intel Mac OS X 10_15_6) AppleWebKit/537.36 (KHTML, like Gecko) Chrome/86.0.4240.193 Safari/537.36" etag="X32u8547hFewstmxkMi6" version="14.2.9" type="github">
  <diagram id="c-I6I31ex5ua1xeiyeGG" name="Page-1">
    <mxGraphModel dx="946" dy="536" grid="1" gridSize="10" guides="1" tooltips="1" connect="1" arrows="1" fold="1" page="1" pageScale="1" pageWidth="827" pageHeight="1169" math="0" shadow="0">
      <root>
        <mxCell id="0" />
        <mxCell id="1" parent="0" />
        <mxCell id="EL0zlATMGqzabKwLZGKl-19" value="" style="edgeStyle=orthogonalEdgeStyle;rounded=0;orthogonalLoop=1;jettySize=auto;html=1;dashed=1;" edge="1" parent="1" source="EL0zlATMGqzabKwLZGKl-1" target="EL0zlATMGqzabKwLZGKl-4">
          <mxGeometry relative="1" as="geometry" />
        </mxCell>
        <mxCell id="EL0zlATMGqzabKwLZGKl-1" value="第一次生成快照" style="rounded=1;whiteSpace=wrap;html=1;fillColor=#ffe6cc;strokeColor=#d79b00;" vertex="1" parent="1">
          <mxGeometry x="170" y="80" width="160" height="60" as="geometry" />
        </mxCell>
        <mxCell id="EL0zlATMGqzabKwLZGKl-2" value="AOF日志&#xa;set key1 value1&#xa;set key2 value2 " style="rounded=1;arcSize=10;dashed=1;strokeColor=#000000;fillColor=none;gradientColor=none;dashPattern=8 3 1 3;strokeWidth=2;" vertex="1" parent="1">
          <mxGeometry x="430" y="170" width="140" height="80" as="geometry" />
        </mxCell>
        <mxCell id="EL0zlATMGqzabKwLZGKl-11" style="edgeStyle=orthogonalEdgeStyle;rounded=0;orthogonalLoop=1;jettySize=auto;html=1;exitX=1;exitY=0.5;exitDx=0;exitDy=0;entryX=0;entryY=0.5;entryDx=0;entryDy=0;dashed=1;" edge="1" parent="1" source="EL0zlATMGqzabKwLZGKl-3" target="EL0zlATMGqzabKwLZGKl-10">
          <mxGeometry relative="1" as="geometry" />
        </mxCell>
        <mxCell id="EL0zlATMGqzabKwLZGKl-21" value="" style="edgeStyle=orthogonalEdgeStyle;rounded=0;orthogonalLoop=1;jettySize=auto;html=1;dashed=1;" edge="1" parent="1" source="EL0zlATMGqzabKwLZGKl-3" target="EL0zlATMGqzabKwLZGKl-8">
          <mxGeometry relative="1" as="geometry" />
        </mxCell>
        <mxCell id="EL0zlATMGqzabKwLZGKl-3" value="&lt;span&gt;第二次生成快照&lt;/span&gt;" style="rounded=1;whiteSpace=wrap;html=1;fillColor=#fff2cc;strokeColor=#d6b656;" vertex="1" parent="1">
          <mxGeometry x="170" y="290" width="160" height="60" as="geometry" />
        </mxCell>
        <mxCell id="EL0zlATMGqzabKwLZGKl-17" style="edgeStyle=orthogonalEdgeStyle;rounded=0;orthogonalLoop=1;jettySize=auto;html=1;exitX=1;exitY=0.5;exitDx=0;exitDy=0;entryX=0;entryY=0.5;entryDx=0;entryDy=0;dashed=1;" edge="1" parent="1" source="EL0zlATMGqzabKwLZGKl-4" target="EL0zlATMGqzabKwLZGKl-2">
          <mxGeometry relative="1" as="geometry" />
        </mxCell>
        <mxCell id="EL0zlATMGqzabKwLZGKl-20" value="" style="edgeStyle=orthogonalEdgeStyle;rounded=0;orthogonalLoop=1;jettySize=auto;html=1;dashed=1;" edge="1" parent="1" source="EL0zlATMGqzabKwLZGKl-4" target="EL0zlATMGqzabKwLZGKl-3">
          <mxGeometry relative="1" as="geometry" />
        </mxCell>
        <mxCell id="EL0zlATMGqzabKwLZGKl-4" value="set key1 value1&lt;br&gt;set key2 value2&amp;nbsp;" style="text;html=1;strokeColor=none;fillColor=none;align=center;verticalAlign=middle;whiteSpace=wrap;rounded=0;" vertex="1" parent="1">
          <mxGeometry x="180" y="180" width="140" height="60" as="geometry" />
        </mxCell>
        <mxCell id="EL0zlATMGqzabKwLZGKl-6" value="AOF日志&#xa;set key3 value3&#xa;set key4 value4 " style="rounded=1;arcSize=10;dashed=1;strokeColor=#000000;fillColor=none;gradientColor=none;dashPattern=8 3 1 3;strokeWidth=2;" vertex="1" parent="1">
          <mxGeometry x="430" y="380" width="140" height="80" as="geometry" />
        </mxCell>
        <mxCell id="EL0zlATMGqzabKwLZGKl-7" value="&lt;span&gt;第三次生成快照&lt;/span&gt;" style="rounded=1;whiteSpace=wrap;html=1;fillColor=#dae8fc;strokeColor=#6c8ebf;" vertex="1" parent="1">
          <mxGeometry x="170" y="490" width="160" height="60" as="geometry" />
        </mxCell>
        <mxCell id="EL0zlATMGqzabKwLZGKl-14" value="" style="edgeStyle=orthogonalEdgeStyle;rounded=0;orthogonalLoop=1;jettySize=auto;html=1;dashed=1;" edge="1" parent="1" source="EL0zlATMGqzabKwLZGKl-8" target="EL0zlATMGqzabKwLZGKl-6">
          <mxGeometry relative="1" as="geometry" />
        </mxCell>
        <mxCell id="EL0zlATMGqzabKwLZGKl-22" value="" style="edgeStyle=orthogonalEdgeStyle;rounded=0;orthogonalLoop=1;jettySize=auto;html=1;dashed=1;" edge="1" parent="1" source="EL0zlATMGqzabKwLZGKl-8" target="EL0zlATMGqzabKwLZGKl-7">
          <mxGeometry relative="1" as="geometry" />
        </mxCell>
        <mxCell id="EL0zlATMGqzabKwLZGKl-8" value="set key3 value3&lt;br&gt;set key4 value4&amp;nbsp;" style="text;html=1;strokeColor=none;fillColor=none;align=center;verticalAlign=middle;whiteSpace=wrap;rounded=0;" vertex="1" parent="1">
          <mxGeometry x="180" y="390" width="140" height="60" as="geometry" />
        </mxCell>
        <mxCell id="EL0zlATMGqzabKwLZGKl-10" value="清空AOF日志" style="text;html=1;strokeColor=none;fillColor=none;align=center;verticalAlign=middle;whiteSpace=wrap;rounded=0;" vertex="1" parent="1">
          <mxGeometry x="440" y="305" width="120" height="30" as="geometry" />
        </mxCell>
        <mxCell id="EL0zlATMGqzabKwLZGKl-16" value="写入aof日志" style="text;html=1;strokeColor=none;fillColor=none;align=center;verticalAlign=middle;whiteSpace=wrap;rounded=0;" vertex="1" parent="1">
          <mxGeometry x="320" y="390" width="110" height="20" as="geometry" />
        </mxCell>
        <mxCell id="EL0zlATMGqzabKwLZGKl-18" value="写入aof日志" style="text;html=1;strokeColor=none;fillColor=none;align=center;verticalAlign=middle;whiteSpace=wrap;rounded=0;" vertex="1" parent="1">
          <mxGeometry x="320" y="170" width="110" height="20" as="geometry" />
        </mxCell>
      </root>
    </mxGraphModel>
  </diagram>
</mxfile>
